<mxfile host="Electron" modified="2024-02-26T07:02:27.790Z" agent="Mozilla/5.0 (Macintosh; Intel Mac OS X 10_15_7) AppleWebKit/537.36 (KHTML, like Gecko) draw.io/22.1.16 Chrome/120.0.6099.109 Electron/28.1.0 Safari/537.36" etag="uIZbqViaXb4_7LU2jRca" version="22.1.16" type="device">
  <diagram name="Page-1" id="b98fa263-6416-c6ec-5b7d-78bf54ef71d0">
    <mxGraphModel dx="1026" dy="770" grid="1" gridSize="10" guides="1" tooltips="1" connect="1" arrows="1" fold="1" page="1" pageScale="1.5" pageWidth="1169" pageHeight="826" background="none" math="0" shadow="0">
      <root>
        <mxCell id="0" style=";html=1;" />
        <mxCell id="1" value="Командир батальона" style=";html=1;" parent="0" />
        <mxCell id="0QYm9itzc9TNsAhSSJbO-3" value="Командир&lt;br style=&quot;font-size: 20px;&quot;&gt;батальона" style="rounded=1;whiteSpace=wrap;html=1;fontSize=20;" parent="1" vertex="1">
          <mxGeometry x="772" y="60" width="210" height="110" as="geometry" />
        </mxCell>
        <mxCell id="0QYm9itzc9TNsAhSSJbO-5" value="Огневая поддержка" style="rounded=1;whiteSpace=wrap;html=1;fontSize=20;" parent="1" vertex="1">
          <mxGeometry x="1305.25" y="260" width="250" height="100" as="geometry" />
        </mxCell>
        <mxCell id="0QYm9itzc9TNsAhSSJbO-6" value="Мотопехотная" style="rounded=1;whiteSpace=wrap;html=1;fontSize=20;" parent="1" vertex="1">
          <mxGeometry x="752" y="260" width="250" height="100" as="geometry" />
        </mxCell>
        <mxCell id="0QYm9itzc9TNsAhSSJbO-7" value="Мотопехотная" style="rounded=1;whiteSpace=wrap;html=1;fontSize=20;" parent="1" vertex="1">
          <mxGeometry x="761.25" y="270" width="250" height="100" as="geometry" />
        </mxCell>
        <mxCell id="0QYm9itzc9TNsAhSSJbO-8" value="МПР" style="rounded=1;whiteSpace=wrap;html=1;fontSize=20;" parent="1" vertex="1">
          <mxGeometry x="771.25" y="280" width="250" height="100" as="geometry" />
        </mxCell>
        <mxCell id="0QYm9itzc9TNsAhSSJbO-9" value="штаб" style="rounded=1;whiteSpace=wrap;html=1;fontSize=20;" parent="1" vertex="1">
          <mxGeometry x="570" y="85" width="120" height="60" as="geometry" />
        </mxCell>
        <mxCell id="0QYm9itzc9TNsAhSSJbO-4" value="Штабная рота" style="rounded=1;whiteSpace=wrap;html=1;fontSize=20;" parent="1" vertex="1">
          <mxGeometry x="40" y="260" width="250" height="100" as="geometry" />
        </mxCell>
        <mxCell id="0QYm9itzc9TNsAhSSJbO-16" value="" style="endArrow=none;html=1;rounded=0;fontSize=20;startSize=8;endSize=8;curved=1;entryX=0;entryY=0.5;entryDx=0;entryDy=0;exitX=1;exitY=0.5;exitDx=0;exitDy=0;" parent="1" source="0QYm9itzc9TNsAhSSJbO-9" target="0QYm9itzc9TNsAhSSJbO-3" edge="1">
          <mxGeometry width="50" height="50" relative="1" as="geometry">
            <mxPoint x="660" y="260" as="sourcePoint" />
            <mxPoint x="710" y="210" as="targetPoint" />
          </mxGeometry>
        </mxCell>
        <mxCell id="0QYm9itzc9TNsAhSSJbO-17" value="" style="endArrow=none;html=1;rounded=0;fontSize=20;startSize=8;endSize=8;exitX=0.5;exitY=0;exitDx=0;exitDy=0;entryX=0.5;entryY=1;entryDx=0;entryDy=0;edgeStyle=orthogonalEdgeStyle;" parent="1" source="0QYm9itzc9TNsAhSSJbO-4" target="0QYm9itzc9TNsAhSSJbO-3" edge="1">
          <mxGeometry width="50" height="50" relative="1" as="geometry">
            <mxPoint x="620" y="310" as="sourcePoint" />
            <mxPoint x="670" y="260" as="targetPoint" />
          </mxGeometry>
        </mxCell>
        <mxCell id="0QYm9itzc9TNsAhSSJbO-18" value="" style="endArrow=none;html=1;rounded=0;fontSize=20;startSize=8;endSize=8;exitX=0.5;exitY=0;exitDx=0;exitDy=0;entryX=0.5;entryY=1;entryDx=0;entryDy=0;edgeStyle=orthogonalEdgeStyle;" parent="1" source="0QYm9itzc9TNsAhSSJbO-5" target="0QYm9itzc9TNsAhSSJbO-3" edge="1">
          <mxGeometry width="50" height="50" relative="1" as="geometry">
            <mxPoint x="1150" y="210" as="sourcePoint" />
            <mxPoint x="1200" y="160" as="targetPoint" />
          </mxGeometry>
        </mxCell>
        <mxCell id="0QYm9itzc9TNsAhSSJbO-19" value="" style="endArrow=none;html=1;rounded=0;fontSize=20;startSize=8;endSize=8;exitX=0.5;exitY=0;exitDx=0;exitDy=0;entryX=0.5;entryY=1;entryDx=0;entryDy=0;edgeStyle=orthogonalEdgeStyle;" parent="1" source="0QYm9itzc9TNsAhSSJbO-6" target="0QYm9itzc9TNsAhSSJbO-3" edge="1">
          <mxGeometry width="50" height="50" relative="1" as="geometry">
            <mxPoint x="1370" y="170" as="sourcePoint" />
            <mxPoint x="1420" y="120" as="targetPoint" />
          </mxGeometry>
        </mxCell>
        <mxCell id="OVKNDqmPp79XCQJYVAa0-16" value="&lt;b style=&quot;font-size: 20px;&quot;&gt;888 человек&lt;/b&gt;" style="text;html=1;strokeColor=none;fillColor=none;align=center;verticalAlign=middle;whiteSpace=wrap;rounded=0;fontSize=20;" parent="1" vertex="1">
          <mxGeometry x="1193.75" y="120" width="305" height="30" as="geometry" />
        </mxCell>
        <mxCell id="OVKNDqmPp79XCQJYVAa0-18" value="&lt;div style=&quot;font-size: 20px;&quot;&gt;&lt;span style=&quot;background-color: initial; font-size: 20px;&quot;&gt;Мотопехотный батальон армии США&lt;/span&gt;&lt;/div&gt;" style="text;whiteSpace=wrap;html=1;fontSize=20;align=center;" parent="1" vertex="1">
          <mxGeometry x="1152.5" y="80" width="387.5" height="40" as="geometry" />
        </mxCell>
        <mxCell id="OVKNDqmPp79XCQJYVAa0-23" value="" style="endArrow=none;html=1;rounded=0;fontSize=20;startSize=8;endSize=8;curved=1;entryX=0;entryY=0.5;entryDx=0;entryDy=0;exitX=1;exitY=0.5;exitDx=0;exitDy=0;" parent="1" source="0QYm9itzc9TNsAhSSJbO-5" target="AxRSapy-rKkkzFosCY9n-76" edge="1">
          <mxGeometry width="50" height="50" relative="1" as="geometry">
            <mxPoint x="1483.25" y="460" as="sourcePoint" />
            <mxPoint x="1533.25" y="410" as="targetPoint" />
          </mxGeometry>
        </mxCell>
        <mxCell id="OVKNDqmPp79XCQJYVAa0-24" value="" style="endArrow=none;html=1;rounded=0;fontSize=20;startSize=8;endSize=8;exitX=0.5;exitY=1;exitDx=0;exitDy=0;entryX=0;entryY=0.5;entryDx=0;entryDy=0;edgeStyle=orthogonalEdgeStyle;" parent="1" source="0QYm9itzc9TNsAhSSJbO-5" target="AxRSapy-rKkkzFosCY9n-5" edge="1">
          <mxGeometry width="50" height="50" relative="1" as="geometry">
            <mxPoint x="1443.25" y="470" as="sourcePoint" />
            <mxPoint x="1493.25" y="420" as="targetPoint" />
          </mxGeometry>
        </mxCell>
        <mxCell id="OVKNDqmPp79XCQJYVAa0-27" value="" style="endArrow=none;html=1;rounded=0;fontSize=20;startSize=8;endSize=8;entryX=0.5;entryY=1;entryDx=0;entryDy=0;exitX=0;exitY=0.5;exitDx=0;exitDy=0;edgeStyle=orthogonalEdgeStyle;" parent="1" source="AxRSapy-rKkkzFosCY9n-70" target="0QYm9itzc9TNsAhSSJbO-5" edge="1">
          <mxGeometry width="50" height="50" relative="1" as="geometry">
            <mxPoint x="1123.25" y="490" as="sourcePoint" />
            <mxPoint x="1173.25" y="440" as="targetPoint" />
          </mxGeometry>
        </mxCell>
        <mxCell id="OVKNDqmPp79XCQJYVAa0-39" value="" style="endArrow=none;html=1;rounded=0;fontSize=20;startSize=8;endSize=8;entryX=0.5;entryY=1;entryDx=0;entryDy=0;exitX=1;exitY=0.5;exitDx=0;exitDy=0;edgeStyle=orthogonalEdgeStyle;" parent="1" source="AxRSapy-rKkkzFosCY9n-66" target="0QYm9itzc9TNsAhSSJbO-5" edge="1">
          <mxGeometry width="50" height="50" relative="1" as="geometry">
            <mxPoint x="1413.25" y="720" as="sourcePoint" />
            <mxPoint x="1463.25" y="670" as="targetPoint" />
          </mxGeometry>
        </mxCell>
        <mxCell id="OVKNDqmPp79XCQJYVAa0-51" value="" style="endArrow=none;html=1;rounded=0;fontSize=20;startSize=8;endSize=8;entryX=0.5;entryY=1;entryDx=0;entryDy=0;exitX=1;exitY=0.5;exitDx=0;exitDy=0;edgeStyle=orthogonalEdgeStyle;" parent="1" source="AxRSapy-rKkkzFosCY9n-75" target="0QYm9itzc9TNsAhSSJbO-5" edge="1">
          <mxGeometry width="50" height="50" relative="1" as="geometry">
            <mxPoint x="1403.25" y="850" as="sourcePoint" />
            <mxPoint x="1453.25" y="800" as="targetPoint" />
          </mxGeometry>
        </mxCell>
        <mxCell id="OVKNDqmPp79XCQJYVAa0-60" value="" style="endArrow=none;html=1;rounded=0;fontSize=20;startSize=8;endSize=8;curved=1;entryX=1;entryY=0.5;entryDx=0;entryDy=0;exitX=0;exitY=0.5;exitDx=0;exitDy=0;" parent="1" source="0QYm9itzc9TNsAhSSJbO-6" target="AxRSapy-rKkkzFosCY9n-85" edge="1">
          <mxGeometry width="50" height="50" relative="1" as="geometry">
            <mxPoint x="1101.25" y="460" as="sourcePoint" />
            <mxPoint x="1151.25" y="410" as="targetPoint" />
          </mxGeometry>
        </mxCell>
        <mxCell id="OVKNDqmPp79XCQJYVAa0-83" value="" style="endArrow=none;html=1;rounded=0;fontSize=20;startSize=8;endSize=8;entryX=0.5;entryY=1;entryDx=0;entryDy=0;exitX=1;exitY=0.5;exitDx=0;exitDy=0;edgeStyle=orthogonalEdgeStyle;" parent="1" source="AxRSapy-rKkkzFosCY9n-86" target="0QYm9itzc9TNsAhSSJbO-8" edge="1">
          <mxGeometry width="50" height="50" relative="1" as="geometry">
            <mxPoint x="641.25" y="500" as="sourcePoint" />
            <mxPoint x="691.25" y="450" as="targetPoint" />
          </mxGeometry>
        </mxCell>
        <mxCell id="OVKNDqmPp79XCQJYVAa0-84" value="" style="endArrow=none;html=1;rounded=0;fontSize=20;startSize=8;endSize=8;entryX=0.5;entryY=1;entryDx=0;entryDy=0;exitX=0.5;exitY=0;exitDx=0;exitDy=0;edgeStyle=orthogonalEdgeStyle;" parent="1" source="AxRSapy-rKkkzFosCY9n-87" target="0QYm9itzc9TNsAhSSJbO-8" edge="1">
          <mxGeometry width="50" height="50" relative="1" as="geometry">
            <mxPoint x="646.25" y="515" as="sourcePoint" />
            <mxPoint x="766.25" y="390" as="targetPoint" />
          </mxGeometry>
        </mxCell>
        <mxCell id="OVKNDqmPp79XCQJYVAa0-140" value="" style="endArrow=none;html=1;rounded=0;fontSize=12;startSize=8;endSize=8;curved=1;entryX=0.5;entryY=1;entryDx=0;entryDy=0;exitX=0.5;exitY=0;exitDx=0;exitDy=0;" parent="1" source="0QYm9itzc9TNsAhSSJbO-29" target="0QYm9itzc9TNsAhSSJbO-5" edge="1">
          <mxGeometry width="50" height="50" relative="1" as="geometry">
            <mxPoint x="1143.25" y="400" as="sourcePoint" />
            <mxPoint x="1193.25" y="350" as="targetPoint" />
          </mxGeometry>
        </mxCell>
        <mxCell id="0QYm9itzc9TNsAhSSJbO-2" value="Штабная рота" parent="0" />
        <mxCell id="0QYm9itzc9TNsAhSSJbO-11" value="ВС" style="rounded=1;whiteSpace=wrap;html=1;fontSize=20;" parent="0QYm9itzc9TNsAhSSJbO-2" vertex="1">
          <mxGeometry x="220" y="490" width="70" height="60" as="geometry" />
        </mxCell>
        <mxCell id="0QYm9itzc9TNsAhSSJbO-12" value="РЕМВ" style="rounded=1;whiteSpace=wrap;html=1;fontSize=20;" parent="0QYm9itzc9TNsAhSSJbO-2" vertex="1">
          <mxGeometry x="220" y="600" width="80" height="60" as="geometry" />
        </mxCell>
        <mxCell id="0QYm9itzc9TNsAhSSJbO-13" value="ВОБ" style="rounded=1;whiteSpace=wrap;html=1;fontSize=20;" parent="0QYm9itzc9TNsAhSSJbO-2" vertex="1">
          <mxGeometry x="20" y="490" width="100" height="60" as="geometry" />
        </mxCell>
        <mxCell id="0QYm9itzc9TNsAhSSJbO-14" value="МЕДВ" style="rounded=1;whiteSpace=wrap;html=1;fontSize=20;" parent="0QYm9itzc9TNsAhSSJbO-2" vertex="1">
          <mxGeometry x="20" y="600" width="100" height="60" as="geometry" />
        </mxCell>
        <mxCell id="0QYm9itzc9TNsAhSSJbO-15" value="обслуживание&lt;br&gt;&amp;nbsp;штаба" style="rounded=1;whiteSpace=wrap;html=1;fontSize=20;" parent="0QYm9itzc9TNsAhSSJbO-2" vertex="1">
          <mxGeometry x="190" y="390" width="210" height="60" as="geometry" />
        </mxCell>
        <mxCell id="0QYm9itzc9TNsAhSSJbO-22" value="" style="endArrow=none;html=1;rounded=0;fontSize=20;startSize=8;endSize=8;entryX=0.5;entryY=1;entryDx=0;entryDy=0;exitX=0;exitY=0.5;exitDx=0;exitDy=0;edgeStyle=orthogonalEdgeStyle;" parent="0QYm9itzc9TNsAhSSJbO-2" source="0QYm9itzc9TNsAhSSJbO-11" target="0QYm9itzc9TNsAhSSJbO-4" edge="1">
          <mxGeometry width="50" height="50" relative="1" as="geometry">
            <mxPoint x="150" y="490" as="sourcePoint" />
            <mxPoint x="200" y="440" as="targetPoint" />
          </mxGeometry>
        </mxCell>
        <mxCell id="0QYm9itzc9TNsAhSSJbO-23" value="" style="endArrow=none;html=1;rounded=0;fontSize=20;startSize=8;endSize=8;entryX=0.5;entryY=1;entryDx=0;entryDy=0;exitX=1;exitY=0.5;exitDx=0;exitDy=0;edgeStyle=orthogonalEdgeStyle;" parent="0QYm9itzc9TNsAhSSJbO-2" source="0QYm9itzc9TNsAhSSJbO-13" target="0QYm9itzc9TNsAhSSJbO-4" edge="1">
          <mxGeometry width="50" height="50" relative="1" as="geometry">
            <mxPoint x="140" y="520" as="sourcePoint" />
            <mxPoint x="190" y="470" as="targetPoint" />
          </mxGeometry>
        </mxCell>
        <mxCell id="0QYm9itzc9TNsAhSSJbO-24" value="" style="endArrow=none;html=1;rounded=0;fontSize=20;startSize=8;endSize=8;exitX=1;exitY=0.5;exitDx=0;exitDy=0;entryX=0.5;entryY=1;entryDx=0;entryDy=0;edgeStyle=orthogonalEdgeStyle;" parent="0QYm9itzc9TNsAhSSJbO-2" source="0QYm9itzc9TNsAhSSJbO-14" target="0QYm9itzc9TNsAhSSJbO-4" edge="1">
          <mxGeometry width="50" height="50" relative="1" as="geometry">
            <mxPoint x="150" y="600" as="sourcePoint" />
            <mxPoint x="200" y="550" as="targetPoint" />
          </mxGeometry>
        </mxCell>
        <mxCell id="0QYm9itzc9TNsAhSSJbO-25" value="" style="endArrow=none;html=1;rounded=0;fontSize=20;startSize=8;endSize=8;entryX=0.5;entryY=1;entryDx=0;entryDy=0;exitX=0;exitY=0.5;exitDx=0;exitDy=0;edgeStyle=orthogonalEdgeStyle;" parent="0QYm9itzc9TNsAhSSJbO-2" source="0QYm9itzc9TNsAhSSJbO-12" target="0QYm9itzc9TNsAhSSJbO-4" edge="1">
          <mxGeometry width="50" height="50" relative="1" as="geometry">
            <mxPoint x="170" y="580" as="sourcePoint" />
            <mxPoint x="220" y="530" as="targetPoint" />
          </mxGeometry>
        </mxCell>
        <mxCell id="0QYm9itzc9TNsAhSSJbO-26" value="" style="endArrow=none;html=1;rounded=0;fontSize=20;startSize=8;endSize=8;entryX=0.5;entryY=1;entryDx=0;entryDy=0;exitX=0;exitY=0.5;exitDx=0;exitDy=0;edgeStyle=orthogonalEdgeStyle;" parent="0QYm9itzc9TNsAhSSJbO-2" source="0QYm9itzc9TNsAhSSJbO-15" target="0QYm9itzc9TNsAhSSJbO-4" edge="1">
          <mxGeometry width="50" height="50" relative="1" as="geometry">
            <mxPoint x="100" y="460" as="sourcePoint" />
            <mxPoint x="150" y="410" as="targetPoint" />
          </mxGeometry>
        </mxCell>
        <mxCell id="0QYm9itzc9TNsAhSSJbO-27" value="ОгневаяПоддержка" parent="0" />
        <mxCell id="AxRSapy-rKkkzFosCY9n-1" value="2 РС&lt;br style=&quot;font-size: 20px;&quot;&gt;2-4 км" style="ellipse;whiteSpace=wrap;html=1;aspect=fixed;fontSize=20;" parent="0QYm9itzc9TNsAhSSJbO-27" vertex="1">
          <mxGeometry x="1528.25" y="525" width="80" height="80" as="geometry" />
        </mxCell>
        <mxCell id="AxRSapy-rKkkzFosCY9n-2" value="2 РС&lt;br style=&quot;font-size: 20px;&quot;&gt;4-8 км" style="ellipse;whiteSpace=wrap;html=1;aspect=fixed;fontSize=20;" parent="0QYm9itzc9TNsAhSSJbO-27" vertex="1">
          <mxGeometry x="1638.25" y="525" width="80" height="80" as="geometry" />
        </mxCell>
        <mxCell id="AxRSapy-rKkkzFosCY9n-5" value="ВРЛР" style="rounded=1;whiteSpace=wrap;html=1;fontSize=20;" parent="0QYm9itzc9TNsAhSSJbO-27" vertex="1">
          <mxGeometry x="1515.75" y="425" width="220" height="70" as="geometry" />
        </mxCell>
        <mxCell id="AxRSapy-rKkkzFosCY9n-22" value="" style="ellipse;whiteSpace=wrap;html=1;aspect=fixed;fontSize=20;" parent="0QYm9itzc9TNsAhSSJbO-27" vertex="1">
          <mxGeometry x="1566" y="735" width="30" height="30" as="geometry" />
        </mxCell>
        <mxCell id="AxRSapy-rKkkzFosCY9n-66" value="ВР" style="rounded=1;whiteSpace=wrap;html=1;fontSize=20;" parent="0QYm9itzc9TNsAhSSJbO-27" vertex="1">
          <mxGeometry x="1150.75" y="425" width="220" height="70" as="geometry" />
        </mxCell>
        <mxCell id="AxRSapy-rKkkzFosCY9n-67" value="группа управления" style="rounded=1;whiteSpace=wrap;html=1;fontSize=20;" parent="0QYm9itzc9TNsAhSSJbO-27" vertex="1">
          <mxGeometry x="1113.25" y="535" width="125" height="65" as="geometry" />
        </mxCell>
        <mxCell id="AxRSapy-rKkkzFosCY9n-68" value="" style="rounded=1;whiteSpace=wrap;html=1;fontSize=20;" parent="0QYm9itzc9TNsAhSSJbO-27" vertex="1">
          <mxGeometry x="1253.25" y="535" width="145" height="60" as="geometry" />
        </mxCell>
        <mxCell id="AxRSapy-rKkkzFosCY9n-69" value="разведсекция" style="rounded=1;whiteSpace=wrap;html=1;fontSize=20;" parent="0QYm9itzc9TNsAhSSJbO-27" vertex="1">
          <mxGeometry x="1263.25" y="545" width="145" height="60" as="geometry" />
        </mxCell>
        <mxCell id="AxRSapy-rKkkzFosCY9n-70" value="секция &lt;br&gt;ЗУРО" style="rounded=1;whiteSpace=wrap;html=1;fontSize=20;" parent="0QYm9itzc9TNsAhSSJbO-27" vertex="1">
          <mxGeometry x="1547" y="635" width="150" height="70" as="geometry" />
        </mxCell>
        <mxCell id="AxRSapy-rKkkzFosCY9n-75" value="МИНВ" style="rounded=1;whiteSpace=wrap;html=1;fontSize=20;" parent="0QYm9itzc9TNsAhSSJbO-27" vertex="1">
          <mxGeometry x="1183.25" y="635" width="160" height="70" as="geometry" />
        </mxCell>
        <mxCell id="AxRSapy-rKkkzFosCY9n-77" value="управление" style="rounded=1;whiteSpace=wrap;html=1;fontSize=20;" parent="0QYm9itzc9TNsAhSSJbO-27" vertex="1">
          <mxGeometry x="1504.25" y="845" width="120" height="60" as="geometry" />
        </mxCell>
        <mxCell id="OVKNDqmPp79XCQJYVAa0-25" value="" style="endArrow=none;html=1;rounded=0;fontSize=20;startSize=8;endSize=8;entryX=0.5;entryY=1;entryDx=0;entryDy=0;exitX=0.5;exitY=0;exitDx=0;exitDy=0;edgeStyle=orthogonalEdgeStyle;" parent="0QYm9itzc9TNsAhSSJbO-27" source="AxRSapy-rKkkzFosCY9n-1" target="AxRSapy-rKkkzFosCY9n-5" edge="1">
          <mxGeometry width="50" height="50" relative="1" as="geometry">
            <mxPoint x="1373.25" y="635" as="sourcePoint" />
            <mxPoint x="1423.25" y="585" as="targetPoint" />
          </mxGeometry>
        </mxCell>
        <mxCell id="OVKNDqmPp79XCQJYVAa0-26" value="" style="endArrow=none;html=1;rounded=0;fontSize=20;startSize=8;endSize=8;entryX=0.5;entryY=1;entryDx=0;entryDy=0;exitX=0.5;exitY=0;exitDx=0;exitDy=0;edgeStyle=orthogonalEdgeStyle;" parent="0QYm9itzc9TNsAhSSJbO-27" source="AxRSapy-rKkkzFosCY9n-2" target="AxRSapy-rKkkzFosCY9n-5" edge="1">
          <mxGeometry width="50" height="50" relative="1" as="geometry">
            <mxPoint x="1373.25" y="625" as="sourcePoint" />
            <mxPoint x="1423.25" y="575" as="targetPoint" />
          </mxGeometry>
        </mxCell>
        <mxCell id="OVKNDqmPp79XCQJYVAa0-28" value="" style="ellipse;whiteSpace=wrap;html=1;aspect=fixed;fontSize=20;" parent="0QYm9itzc9TNsAhSSJbO-27" vertex="1">
          <mxGeometry x="1607" y="735" width="30" height="30" as="geometry" />
        </mxCell>
        <mxCell id="OVKNDqmPp79XCQJYVAa0-29" value="" style="ellipse;whiteSpace=wrap;html=1;aspect=fixed;fontSize=20;" parent="0QYm9itzc9TNsAhSSJbO-27" vertex="1">
          <mxGeometry x="1649" y="735" width="30" height="30" as="geometry" />
        </mxCell>
        <mxCell id="OVKNDqmPp79XCQJYVAa0-30" value="" style="ellipse;whiteSpace=wrap;html=1;aspect=fixed;fontSize=20;" parent="0QYm9itzc9TNsAhSSJbO-27" vertex="1">
          <mxGeometry x="1527" y="735" width="30" height="30" as="geometry" />
        </mxCell>
        <mxCell id="OVKNDqmPp79XCQJYVAa0-33" value="" style="ellipse;whiteSpace=wrap;html=1;aspect=fixed;fontSize=20;" parent="0QYm9itzc9TNsAhSSJbO-27" vertex="1">
          <mxGeometry x="1694.5" y="735" width="30" height="30" as="geometry" />
        </mxCell>
        <mxCell id="OVKNDqmPp79XCQJYVAa0-34" value="" style="endArrow=none;html=1;rounded=0;fontSize=20;startSize=8;endSize=8;entryX=0.5;entryY=1;entryDx=0;entryDy=0;exitX=0.5;exitY=0;exitDx=0;exitDy=0;edgeStyle=orthogonalEdgeStyle;" parent="0QYm9itzc9TNsAhSSJbO-27" source="OVKNDqmPp79XCQJYVAa0-30" target="AxRSapy-rKkkzFosCY9n-70" edge="1">
          <mxGeometry width="50" height="50" relative="1" as="geometry">
            <mxPoint x="1482" y="755" as="sourcePoint" />
            <mxPoint x="1532" y="705" as="targetPoint" />
          </mxGeometry>
        </mxCell>
        <mxCell id="OVKNDqmPp79XCQJYVAa0-35" value="" style="endArrow=none;html=1;rounded=0;fontSize=20;startSize=8;endSize=8;entryX=0.5;entryY=1;entryDx=0;entryDy=0;exitX=0.5;exitY=0;exitDx=0;exitDy=0;edgeStyle=orthogonalEdgeStyle;" parent="0QYm9itzc9TNsAhSSJbO-27" source="AxRSapy-rKkkzFosCY9n-22" target="AxRSapy-rKkkzFosCY9n-70" edge="1">
          <mxGeometry width="50" height="50" relative="1" as="geometry">
            <mxPoint x="1552" y="745" as="sourcePoint" />
            <mxPoint x="1632" y="715" as="targetPoint" />
          </mxGeometry>
        </mxCell>
        <mxCell id="OVKNDqmPp79XCQJYVAa0-36" value="" style="endArrow=none;html=1;rounded=0;fontSize=20;startSize=8;endSize=8;entryX=0.5;entryY=1;entryDx=0;entryDy=0;exitX=0.5;exitY=0;exitDx=0;exitDy=0;edgeStyle=orthogonalEdgeStyle;" parent="0QYm9itzc9TNsAhSSJbO-27" source="OVKNDqmPp79XCQJYVAa0-28" target="AxRSapy-rKkkzFosCY9n-70" edge="1">
          <mxGeometry width="50" height="50" relative="1" as="geometry">
            <mxPoint x="1591" y="745" as="sourcePoint" />
            <mxPoint x="1632" y="715" as="targetPoint" />
          </mxGeometry>
        </mxCell>
        <mxCell id="OVKNDqmPp79XCQJYVAa0-37" value="" style="endArrow=none;html=1;rounded=0;fontSize=20;startSize=8;endSize=8;entryX=0.5;entryY=1;entryDx=0;entryDy=0;exitX=0.5;exitY=0;exitDx=0;exitDy=0;edgeStyle=orthogonalEdgeStyle;" parent="0QYm9itzc9TNsAhSSJbO-27" source="OVKNDqmPp79XCQJYVAa0-29" target="AxRSapy-rKkkzFosCY9n-70" edge="1">
          <mxGeometry width="50" height="50" relative="1" as="geometry">
            <mxPoint x="1632" y="745" as="sourcePoint" />
            <mxPoint x="1632" y="715" as="targetPoint" />
          </mxGeometry>
        </mxCell>
        <mxCell id="OVKNDqmPp79XCQJYVAa0-38" value="" style="endArrow=none;html=1;rounded=0;fontSize=20;startSize=8;endSize=8;entryX=0.5;entryY=1;entryDx=0;entryDy=0;exitX=0.5;exitY=0;exitDx=0;exitDy=0;edgeStyle=orthogonalEdgeStyle;" parent="0QYm9itzc9TNsAhSSJbO-27" source="OVKNDqmPp79XCQJYVAa0-33" target="AxRSapy-rKkkzFosCY9n-70" edge="1">
          <mxGeometry width="50" height="50" relative="1" as="geometry">
            <mxPoint x="1674" y="745" as="sourcePoint" />
            <mxPoint x="1632" y="715" as="targetPoint" />
          </mxGeometry>
        </mxCell>
        <mxCell id="OVKNDqmPp79XCQJYVAa0-40" value="" style="endArrow=none;html=1;rounded=0;fontSize=20;startSize=8;endSize=8;entryX=0.5;entryY=1;entryDx=0;entryDy=0;exitX=0.5;exitY=0;exitDx=0;exitDy=0;edgeStyle=orthogonalEdgeStyle;" parent="0QYm9itzc9TNsAhSSJbO-27" source="AxRSapy-rKkkzFosCY9n-67" target="AxRSapy-rKkkzFosCY9n-66" edge="1">
          <mxGeometry width="50" height="50" relative="1" as="geometry">
            <mxPoint x="1038.25" y="615" as="sourcePoint" />
            <mxPoint x="1088.25" y="565" as="targetPoint" />
          </mxGeometry>
        </mxCell>
        <mxCell id="OVKNDqmPp79XCQJYVAa0-41" value="" style="endArrow=none;html=1;rounded=0;fontSize=20;startSize=8;endSize=8;entryX=0.5;entryY=1;entryDx=0;entryDy=0;exitX=0.5;exitY=0;exitDx=0;exitDy=0;edgeStyle=orthogonalEdgeStyle;" parent="0QYm9itzc9TNsAhSSJbO-27" source="AxRSapy-rKkkzFosCY9n-68" target="AxRSapy-rKkkzFosCY9n-66" edge="1">
          <mxGeometry width="50" height="50" relative="1" as="geometry">
            <mxPoint x="1008.25" y="615" as="sourcePoint" />
            <mxPoint x="1058.25" y="565" as="targetPoint" />
          </mxGeometry>
        </mxCell>
        <mxCell id="OVKNDqmPp79XCQJYVAa0-42" value="" style="ellipse;whiteSpace=wrap;html=1;aspect=fixed;fontSize=20;" parent="0QYm9itzc9TNsAhSSJbO-27" vertex="1">
          <mxGeometry x="1174.75" y="745" width="30" height="30" as="geometry" />
        </mxCell>
        <mxCell id="OVKNDqmPp79XCQJYVAa0-43" value="" style="ellipse;whiteSpace=wrap;html=1;aspect=fixed;fontSize=20;" parent="0QYm9itzc9TNsAhSSJbO-27" vertex="1">
          <mxGeometry x="1223.75" y="745" width="30" height="30" as="geometry" />
        </mxCell>
        <mxCell id="OVKNDqmPp79XCQJYVAa0-44" value="" style="ellipse;whiteSpace=wrap;html=1;aspect=fixed;fontSize=20;" parent="0QYm9itzc9TNsAhSSJbO-27" vertex="1">
          <mxGeometry x="1272.75" y="745" width="30" height="30" as="geometry" />
        </mxCell>
        <mxCell id="OVKNDqmPp79XCQJYVAa0-45" value="" style="ellipse;whiteSpace=wrap;html=1;aspect=fixed;fontSize=20;" parent="0QYm9itzc9TNsAhSSJbO-27" vertex="1">
          <mxGeometry x="1321.75" y="745" width="30" height="30" as="geometry" />
        </mxCell>
        <mxCell id="OVKNDqmPp79XCQJYVAa0-46" value="" style="endArrow=none;html=1;rounded=0;fontSize=20;startSize=8;endSize=8;entryX=0.5;entryY=1;entryDx=0;entryDy=0;exitX=0.5;exitY=0;exitDx=0;exitDy=0;edgeStyle=orthogonalEdgeStyle;" parent="0QYm9itzc9TNsAhSSJbO-27" source="OVKNDqmPp79XCQJYVAa0-42" target="AxRSapy-rKkkzFosCY9n-75" edge="1">
          <mxGeometry width="50" height="50" relative="1" as="geometry">
            <mxPoint x="1143.25" y="855" as="sourcePoint" />
            <mxPoint x="1193.25" y="805" as="targetPoint" />
          </mxGeometry>
        </mxCell>
        <mxCell id="OVKNDqmPp79XCQJYVAa0-47" value="" style="endArrow=none;html=1;rounded=0;fontSize=20;startSize=8;endSize=8;entryX=0.5;entryY=1;entryDx=0;entryDy=0;exitX=0.5;exitY=0;exitDx=0;exitDy=0;edgeStyle=orthogonalEdgeStyle;" parent="0QYm9itzc9TNsAhSSJbO-27" source="OVKNDqmPp79XCQJYVAa0-43" target="AxRSapy-rKkkzFosCY9n-75" edge="1">
          <mxGeometry width="50" height="50" relative="1" as="geometry">
            <mxPoint x="1163.25" y="755" as="sourcePoint" />
            <mxPoint x="1243.25" y="715" as="targetPoint" />
          </mxGeometry>
        </mxCell>
        <mxCell id="OVKNDqmPp79XCQJYVAa0-48" value="" style="endArrow=none;html=1;rounded=0;fontSize=20;startSize=8;endSize=8;entryX=0.5;entryY=1;entryDx=0;entryDy=0;exitX=0.5;exitY=0;exitDx=0;exitDy=0;edgeStyle=orthogonalEdgeStyle;" parent="0QYm9itzc9TNsAhSSJbO-27" source="OVKNDqmPp79XCQJYVAa0-44" target="AxRSapy-rKkkzFosCY9n-75" edge="1">
          <mxGeometry width="50" height="50" relative="1" as="geometry">
            <mxPoint x="1223.25" y="755" as="sourcePoint" />
            <mxPoint x="1243.25" y="715" as="targetPoint" />
          </mxGeometry>
        </mxCell>
        <mxCell id="OVKNDqmPp79XCQJYVAa0-49" value="" style="endArrow=none;html=1;rounded=0;fontSize=20;startSize=8;endSize=8;entryX=0.5;entryY=1;entryDx=0;entryDy=0;exitX=0.5;exitY=0;exitDx=0;exitDy=0;edgeStyle=orthogonalEdgeStyle;" parent="0QYm9itzc9TNsAhSSJbO-27" source="OVKNDqmPp79XCQJYVAa0-45" target="AxRSapy-rKkkzFosCY9n-75" edge="1">
          <mxGeometry width="50" height="50" relative="1" as="geometry">
            <mxPoint x="1268.25" y="755" as="sourcePoint" />
            <mxPoint x="1243.25" y="715" as="targetPoint" />
          </mxGeometry>
        </mxCell>
        <mxCell id="OVKNDqmPp79XCQJYVAa0-59" value="" style="endArrow=none;html=1;rounded=0;fontSize=20;startSize=8;endSize=8;curved=1;entryX=0;entryY=0.5;entryDx=0;entryDy=0;exitX=1;exitY=0.5;exitDx=0;exitDy=0;" parent="0QYm9itzc9TNsAhSSJbO-27" source="0QYm9itzc9TNsAhSSJbO-29" target="AxRSapy-rKkkzFosCY9n-77" edge="1">
          <mxGeometry width="50" height="50" relative="1" as="geometry">
            <mxPoint x="1533.25" y="1018" as="sourcePoint" />
            <mxPoint x="1583.25" y="968" as="targetPoint" />
          </mxGeometry>
        </mxCell>
        <mxCell id="OVKNDqmPp79XCQJYVAa0-148" value="" style="shape=image;verticalLabelPosition=bottom;labelBackgroundColor=default;verticalAlign=top;aspect=fixed;imageAspect=0;image=https://upload.wikimedia.org/wikipedia/commons/4/46/NATO_Map_Symbol_-_Land_Equipment_-_Friendly_-_Mortar_-_Heavy.svg;" parent="0QYm9itzc9TNsAhSSJbO-27" vertex="1">
          <mxGeometry x="1163.25" y="775.5" width="53" height="53" as="geometry" />
        </mxCell>
        <mxCell id="OVKNDqmPp79XCQJYVAa0-149" value="" style="shape=image;verticalLabelPosition=bottom;labelBackgroundColor=default;verticalAlign=top;aspect=fixed;imageAspect=0;image=https://upload.wikimedia.org/wikipedia/commons/4/46/NATO_Map_Symbol_-_Land_Equipment_-_Friendly_-_Mortar_-_Heavy.svg;" parent="0QYm9itzc9TNsAhSSJbO-27" vertex="1">
          <mxGeometry x="1212.25" y="775" width="53" height="53" as="geometry" />
        </mxCell>
        <mxCell id="OVKNDqmPp79XCQJYVAa0-150" value="" style="shape=image;verticalLabelPosition=bottom;labelBackgroundColor=default;verticalAlign=top;aspect=fixed;imageAspect=0;image=https://upload.wikimedia.org/wikipedia/commons/4/46/NATO_Map_Symbol_-_Land_Equipment_-_Friendly_-_Mortar_-_Heavy.svg;" parent="0QYm9itzc9TNsAhSSJbO-27" vertex="1">
          <mxGeometry x="1261.25" y="775" width="53" height="53" as="geometry" />
        </mxCell>
        <mxCell id="OVKNDqmPp79XCQJYVAa0-151" value="" style="shape=image;verticalLabelPosition=bottom;labelBackgroundColor=default;verticalAlign=top;aspect=fixed;imageAspect=0;image=https://upload.wikimedia.org/wikipedia/commons/4/46/NATO_Map_Symbol_-_Land_Equipment_-_Friendly_-_Mortar_-_Heavy.svg;" parent="0QYm9itzc9TNsAhSSJbO-27" vertex="1">
          <mxGeometry x="1310.25" y="775" width="53" height="53" as="geometry" />
        </mxCell>
        <mxCell id="OVKNDqmPp79XCQJYVAa0-155" value="" style="group" parent="0QYm9itzc9TNsAhSSJbO-27" vertex="1" connectable="0">
          <mxGeometry x="1516.87" y="760" width="50.25" height="50.25" as="geometry" />
        </mxCell>
        <mxCell id="OVKNDqmPp79XCQJYVAa0-153" value="" style="shape=image;verticalLabelPosition=bottom;labelBackgroundColor=default;verticalAlign=top;aspect=fixed;imageAspect=0;image=https://upload.wikimedia.org/wikipedia/commons/d/d9/NATO_Map_Symbol_-_Land_Equipment_-_Friendly_-_Air_Defence_Gun_-_Heavy.svg;" parent="OVKNDqmPp79XCQJYVAa0-155" vertex="1">
          <mxGeometry width="50.25" height="50.25" as="geometry" />
        </mxCell>
        <mxCell id="OVKNDqmPp79XCQJYVAa0-154" value="6" style="text;strokeColor=none;fillColor=none;html=1;align=center;verticalAlign=middle;whiteSpace=wrap;rounded=0;fontSize=20;fontColor=#0000ff;" parent="OVKNDqmPp79XCQJYVAa0-155" vertex="1">
          <mxGeometry y="4.1875" width="15.354166666666666" height="41.875" as="geometry" />
        </mxCell>
        <mxCell id="OVKNDqmPp79XCQJYVAa0-199" value="" style="endArrow=none;html=1;rounded=0;fontSize=12;startSize=8;endSize=8;entryX=0.5;entryY=1;entryDx=0;entryDy=0;exitX=0.5;exitY=0;exitDx=0;exitDy=0;edgeStyle=orthogonalEdgeStyle;" parent="0QYm9itzc9TNsAhSSJbO-27" source="OVKNDqmPp79XCQJYVAa0-168" target="0QYm9itzc9TNsAhSSJbO-29" edge="1">
          <mxGeometry width="50" height="50" relative="1" as="geometry">
            <mxPoint x="1313.25" y="930" as="sourcePoint" />
            <mxPoint x="1363.25" y="880" as="targetPoint" />
          </mxGeometry>
        </mxCell>
        <mxCell id="OVKNDqmPp79XCQJYVAa0-200" value="" style="endArrow=none;html=1;rounded=0;fontSize=12;startSize=8;endSize=8;entryX=0.5;entryY=1;entryDx=0;entryDy=0;exitX=0.5;exitY=0;exitDx=0;exitDy=0;edgeStyle=orthogonalEdgeStyle;" parent="0QYm9itzc9TNsAhSSJbO-27" source="OVKNDqmPp79XCQJYVAa0-175" target="0QYm9itzc9TNsAhSSJbO-29" edge="1">
          <mxGeometry width="50" height="50" relative="1" as="geometry">
            <mxPoint x="1296.25" y="950" as="sourcePoint" />
            <mxPoint x="1440.25" y="920" as="targetPoint" />
          </mxGeometry>
        </mxCell>
        <mxCell id="OVKNDqmPp79XCQJYVAa0-201" value="" style="endArrow=none;html=1;rounded=0;fontSize=12;startSize=8;endSize=8;entryX=0.5;entryY=1;entryDx=0;entryDy=0;exitX=0.536;exitY=0.085;exitDx=0;exitDy=0;exitPerimeter=0;edgeStyle=orthogonalEdgeStyle;" parent="0QYm9itzc9TNsAhSSJbO-27" source="OVKNDqmPp79XCQJYVAa0-185" target="0QYm9itzc9TNsAhSSJbO-29" edge="1">
          <mxGeometry width="50" height="50" relative="1" as="geometry">
            <mxPoint x="1353.25" y="950" as="sourcePoint" />
            <mxPoint x="1440.25" y="920" as="targetPoint" />
          </mxGeometry>
        </mxCell>
        <mxCell id="OVKNDqmPp79XCQJYVAa0-202" value="" style="endArrow=none;html=1;rounded=0;fontSize=12;startSize=8;endSize=8;entryX=0.5;entryY=1;entryDx=0;entryDy=0;exitX=0.5;exitY=0;exitDx=0;exitDy=0;edgeStyle=orthogonalEdgeStyle;" parent="0QYm9itzc9TNsAhSSJbO-27" source="OVKNDqmPp79XCQJYVAa0-180" target="0QYm9itzc9TNsAhSSJbO-29" edge="1">
          <mxGeometry width="50" height="50" relative="1" as="geometry">
            <mxPoint x="1363.25" y="960" as="sourcePoint" />
            <mxPoint x="1450.25" y="930" as="targetPoint" />
          </mxGeometry>
        </mxCell>
        <mxCell id="OVKNDqmPp79XCQJYVAa0-203" value="" style="endArrow=none;html=1;rounded=0;fontSize=12;startSize=8;endSize=8;entryX=0.5;entryY=1;entryDx=0;entryDy=0;exitX=0.5;exitY=0;exitDx=0;exitDy=0;edgeStyle=orthogonalEdgeStyle;" parent="0QYm9itzc9TNsAhSSJbO-27" source="OVKNDqmPp79XCQJYVAa0-190" target="0QYm9itzc9TNsAhSSJbO-29" edge="1">
          <mxGeometry width="50" height="50" relative="1" as="geometry">
            <mxPoint x="1468.25" y="950" as="sourcePoint" />
            <mxPoint x="1440.25" y="920" as="targetPoint" />
          </mxGeometry>
        </mxCell>
        <mxCell id="OVKNDqmPp79XCQJYVAa0-204" value="" style="endArrow=none;html=1;rounded=0;fontSize=12;startSize=8;endSize=8;entryX=0.5;entryY=1;entryDx=0;entryDy=0;exitX=0.5;exitY=0;exitDx=0;exitDy=0;edgeStyle=orthogonalEdgeStyle;" parent="0QYm9itzc9TNsAhSSJbO-27" source="OVKNDqmPp79XCQJYVAa0-195" target="0QYm9itzc9TNsAhSSJbO-29" edge="1">
          <mxGeometry width="50" height="50" relative="1" as="geometry">
            <mxPoint x="1526.25" y="950" as="sourcePoint" />
            <mxPoint x="1440.25" y="920" as="targetPoint" />
          </mxGeometry>
        </mxCell>
        <mxCell id="OVKNDqmPp79XCQJYVAa0-168" value="" style="ellipse;whiteSpace=wrap;html=1;aspect=fixed;fontSize=20;" parent="0QYm9itzc9TNsAhSSJbO-27" vertex="1">
          <mxGeometry x="1271" y="940" width="30" height="30" as="geometry" />
        </mxCell>
        <mxCell id="xZx3a-XBZKL8ZRLLkNiZ-10" value="" style="group" vertex="1" connectable="0" parent="0QYm9itzc9TNsAhSSJbO-27">
          <mxGeometry x="1253.75" y="965" width="61.75" height="50.75" as="geometry" />
        </mxCell>
        <mxCell id="OVKNDqmPp79XCQJYVAa0-169" value="" style="shape=image;verticalLabelPosition=bottom;labelBackgroundColor=default;verticalAlign=top;aspect=fixed;imageAspect=0;image=https://upload.wikimedia.org/wikipedia/commons/thumb/d/d9/NATO_Map_Symbol_-_Land_Equipment_-_Friendly_-_Anti-Tank_Gun_-_Medium.svg/593px-NATO_Map_Symbol_-_Land_Equipment_-_Friendly_-_Anti-Tank_Gun_-_Medium.svg.png;" parent="xZx3a-XBZKL8ZRLLkNiZ-10" vertex="1">
          <mxGeometry x="11" width="50.75" height="50.75" as="geometry" />
        </mxCell>
        <mxCell id="OVKNDqmPp79XCQJYVAa0-170" value="2" style="text;html=1;align=center;verticalAlign=middle;resizable=0;points=[];autosize=1;strokeColor=none;fillColor=none;fontSize=22;fontColor=#0000ff;" parent="xZx3a-XBZKL8ZRLLkNiZ-10" vertex="1">
          <mxGeometry y="8" width="40" height="40" as="geometry" />
        </mxCell>
        <mxCell id="xZx3a-XBZKL8ZRLLkNiZ-18" value="" style="group" vertex="1" connectable="0" parent="0QYm9itzc9TNsAhSSJbO-27">
          <mxGeometry x="1370.75" y="965" width="61.75" height="50.75" as="geometry" />
        </mxCell>
        <mxCell id="xZx3a-XBZKL8ZRLLkNiZ-19" value="" style="shape=image;verticalLabelPosition=bottom;labelBackgroundColor=default;verticalAlign=top;aspect=fixed;imageAspect=0;image=https://upload.wikimedia.org/wikipedia/commons/thumb/d/d9/NATO_Map_Symbol_-_Land_Equipment_-_Friendly_-_Anti-Tank_Gun_-_Medium.svg/593px-NATO_Map_Symbol_-_Land_Equipment_-_Friendly_-_Anti-Tank_Gun_-_Medium.svg.png;" vertex="1" parent="xZx3a-XBZKL8ZRLLkNiZ-18">
          <mxGeometry x="11" width="50.75" height="50.75" as="geometry" />
        </mxCell>
        <mxCell id="xZx3a-XBZKL8ZRLLkNiZ-20" value="2" style="text;html=1;align=center;verticalAlign=middle;resizable=0;points=[];autosize=1;strokeColor=none;fillColor=none;fontSize=22;fontColor=#0000ff;" vertex="1" parent="xZx3a-XBZKL8ZRLLkNiZ-18">
          <mxGeometry y="8" width="40" height="40" as="geometry" />
        </mxCell>
        <mxCell id="OVKNDqmPp79XCQJYVAa0-185" value="" style="ellipse;whiteSpace=wrap;html=1;aspect=fixed;fontSize=20;" parent="0QYm9itzc9TNsAhSSJbO-27" vertex="1">
          <mxGeometry x="1386" y="940" width="30" height="30" as="geometry" />
        </mxCell>
        <mxCell id="OVKNDqmPp79XCQJYVAa0-180" value="" style="ellipse;whiteSpace=wrap;html=1;aspect=fixed;fontSize=20;" parent="0QYm9itzc9TNsAhSSJbO-27" vertex="1">
          <mxGeometry x="1443" y="940" width="30" height="30" as="geometry" />
        </mxCell>
        <mxCell id="OVKNDqmPp79XCQJYVAa0-190" value="" style="ellipse;whiteSpace=wrap;html=1;aspect=fixed;fontSize=20;" parent="0QYm9itzc9TNsAhSSJbO-27" vertex="1">
          <mxGeometry x="1501" y="940" width="30" height="30" as="geometry" />
        </mxCell>
        <mxCell id="OVKNDqmPp79XCQJYVAa0-195" value="" style="ellipse;whiteSpace=wrap;html=1;aspect=fixed;fontSize=20;" parent="0QYm9itzc9TNsAhSSJbO-27" vertex="1">
          <mxGeometry x="1558" y="940" width="30" height="30" as="geometry" />
        </mxCell>
        <mxCell id="OVKNDqmPp79XCQJYVAa0-175" value="" style="ellipse;whiteSpace=wrap;html=1;aspect=fixed;fontSize=20;" parent="0QYm9itzc9TNsAhSSJbO-27" vertex="1">
          <mxGeometry x="1328" y="940" width="30" height="30" as="geometry" />
        </mxCell>
        <mxCell id="xZx3a-XBZKL8ZRLLkNiZ-15" value="" style="group" vertex="1" connectable="0" parent="0QYm9itzc9TNsAhSSJbO-27">
          <mxGeometry x="1316" y="964" width="61.75" height="50.75" as="geometry" />
        </mxCell>
        <mxCell id="xZx3a-XBZKL8ZRLLkNiZ-16" value="" style="shape=image;verticalLabelPosition=bottom;labelBackgroundColor=default;verticalAlign=top;aspect=fixed;imageAspect=0;image=https://upload.wikimedia.org/wikipedia/commons/thumb/d/d9/NATO_Map_Symbol_-_Land_Equipment_-_Friendly_-_Anti-Tank_Gun_-_Medium.svg/593px-NATO_Map_Symbol_-_Land_Equipment_-_Friendly_-_Anti-Tank_Gun_-_Medium.svg.png;" vertex="1" parent="xZx3a-XBZKL8ZRLLkNiZ-15">
          <mxGeometry x="11" width="50.75" height="50.75" as="geometry" />
        </mxCell>
        <mxCell id="xZx3a-XBZKL8ZRLLkNiZ-17" value="2" style="text;html=1;align=center;verticalAlign=middle;resizable=0;points=[];autosize=1;strokeColor=none;fillColor=none;fontSize=22;fontColor=#0000ff;" vertex="1" parent="xZx3a-XBZKL8ZRLLkNiZ-15">
          <mxGeometry y="8" width="40" height="40" as="geometry" />
        </mxCell>
        <mxCell id="xZx3a-XBZKL8ZRLLkNiZ-24" value="" style="group" vertex="1" connectable="0" parent="0QYm9itzc9TNsAhSSJbO-27">
          <mxGeometry x="1427.13" y="965" width="61.75" height="50.75" as="geometry" />
        </mxCell>
        <mxCell id="xZx3a-XBZKL8ZRLLkNiZ-25" value="" style="shape=image;verticalLabelPosition=bottom;labelBackgroundColor=default;verticalAlign=top;aspect=fixed;imageAspect=0;image=https://upload.wikimedia.org/wikipedia/commons/thumb/d/d9/NATO_Map_Symbol_-_Land_Equipment_-_Friendly_-_Anti-Tank_Gun_-_Medium.svg/593px-NATO_Map_Symbol_-_Land_Equipment_-_Friendly_-_Anti-Tank_Gun_-_Medium.svg.png;" vertex="1" parent="xZx3a-XBZKL8ZRLLkNiZ-24">
          <mxGeometry x="11" width="50.75" height="50.75" as="geometry" />
        </mxCell>
        <mxCell id="xZx3a-XBZKL8ZRLLkNiZ-26" value="2" style="text;html=1;align=center;verticalAlign=middle;resizable=0;points=[];autosize=1;strokeColor=none;fillColor=none;fontSize=22;fontColor=#0000ff;" vertex="1" parent="xZx3a-XBZKL8ZRLLkNiZ-24">
          <mxGeometry y="8" width="40" height="40" as="geometry" />
        </mxCell>
        <mxCell id="xZx3a-XBZKL8ZRLLkNiZ-27" value="" style="group" vertex="1" connectable="0" parent="0QYm9itzc9TNsAhSSJbO-27">
          <mxGeometry x="1485.13" y="965" width="61.75" height="50.75" as="geometry" />
        </mxCell>
        <mxCell id="xZx3a-XBZKL8ZRLLkNiZ-28" value="" style="shape=image;verticalLabelPosition=bottom;labelBackgroundColor=default;verticalAlign=top;aspect=fixed;imageAspect=0;image=https://upload.wikimedia.org/wikipedia/commons/thumb/d/d9/NATO_Map_Symbol_-_Land_Equipment_-_Friendly_-_Anti-Tank_Gun_-_Medium.svg/593px-NATO_Map_Symbol_-_Land_Equipment_-_Friendly_-_Anti-Tank_Gun_-_Medium.svg.png;" vertex="1" parent="xZx3a-XBZKL8ZRLLkNiZ-27">
          <mxGeometry x="11" width="50.75" height="50.75" as="geometry" />
        </mxCell>
        <mxCell id="xZx3a-XBZKL8ZRLLkNiZ-29" value="2" style="text;html=1;align=center;verticalAlign=middle;resizable=0;points=[];autosize=1;strokeColor=none;fillColor=none;fontSize=22;fontColor=#0000ff;" vertex="1" parent="xZx3a-XBZKL8ZRLLkNiZ-27">
          <mxGeometry y="8" width="40" height="40" as="geometry" />
        </mxCell>
        <mxCell id="xZx3a-XBZKL8ZRLLkNiZ-30" value="" style="group" vertex="1" connectable="0" parent="0QYm9itzc9TNsAhSSJbO-27">
          <mxGeometry x="1545.25" y="965" width="61.75" height="50.75" as="geometry" />
        </mxCell>
        <mxCell id="xZx3a-XBZKL8ZRLLkNiZ-31" value="" style="shape=image;verticalLabelPosition=bottom;labelBackgroundColor=default;verticalAlign=top;aspect=fixed;imageAspect=0;image=https://upload.wikimedia.org/wikipedia/commons/thumb/d/d9/NATO_Map_Symbol_-_Land_Equipment_-_Friendly_-_Anti-Tank_Gun_-_Medium.svg/593px-NATO_Map_Symbol_-_Land_Equipment_-_Friendly_-_Anti-Tank_Gun_-_Medium.svg.png;" vertex="1" parent="xZx3a-XBZKL8ZRLLkNiZ-30">
          <mxGeometry x="11" width="50.75" height="50.75" as="geometry" />
        </mxCell>
        <mxCell id="xZx3a-XBZKL8ZRLLkNiZ-32" value="2" style="text;html=1;align=center;verticalAlign=middle;resizable=0;points=[];autosize=1;strokeColor=none;fillColor=none;fontSize=22;fontColor=#0000ff;" vertex="1" parent="xZx3a-XBZKL8ZRLLkNiZ-30">
          <mxGeometry y="8" width="40" height="40" as="geometry" />
        </mxCell>
        <mxCell id="xZx3a-XBZKL8ZRLLkNiZ-33" value="" style="group" vertex="1" connectable="0" parent="0QYm9itzc9TNsAhSSJbO-27">
          <mxGeometry x="1558" y="760" width="50.25" height="50.25" as="geometry" />
        </mxCell>
        <mxCell id="xZx3a-XBZKL8ZRLLkNiZ-34" value="" style="shape=image;verticalLabelPosition=bottom;labelBackgroundColor=default;verticalAlign=top;aspect=fixed;imageAspect=0;image=https://upload.wikimedia.org/wikipedia/commons/d/d9/NATO_Map_Symbol_-_Land_Equipment_-_Friendly_-_Air_Defence_Gun_-_Heavy.svg;" vertex="1" parent="xZx3a-XBZKL8ZRLLkNiZ-33">
          <mxGeometry width="50.25" height="50.25" as="geometry" />
        </mxCell>
        <mxCell id="xZx3a-XBZKL8ZRLLkNiZ-35" value="&lt;font style=&quot;font-size: 20px;&quot;&gt;6&lt;/font&gt;" style="text;strokeColor=none;fillColor=none;html=1;align=center;verticalAlign=middle;whiteSpace=wrap;rounded=0;fontSize=16;fontColor=#0000ff;" vertex="1" parent="xZx3a-XBZKL8ZRLLkNiZ-33">
          <mxGeometry y="4.1875" width="15.354166666666666" height="41.875" as="geometry" />
        </mxCell>
        <mxCell id="xZx3a-XBZKL8ZRLLkNiZ-37" value="" style="group" vertex="1" connectable="0" parent="0QYm9itzc9TNsAhSSJbO-27">
          <mxGeometry x="1596.87" y="760" width="50.25" height="50.25" as="geometry" />
        </mxCell>
        <mxCell id="xZx3a-XBZKL8ZRLLkNiZ-38" value="" style="shape=image;verticalLabelPosition=bottom;labelBackgroundColor=default;verticalAlign=top;aspect=fixed;imageAspect=0;image=https://upload.wikimedia.org/wikipedia/commons/d/d9/NATO_Map_Symbol_-_Land_Equipment_-_Friendly_-_Air_Defence_Gun_-_Heavy.svg;" vertex="1" parent="xZx3a-XBZKL8ZRLLkNiZ-37">
          <mxGeometry width="50.25" height="50.25" as="geometry" />
        </mxCell>
        <mxCell id="xZx3a-XBZKL8ZRLLkNiZ-39" value="&lt;font style=&quot;font-size: 20px;&quot;&gt;6&lt;/font&gt;" style="text;strokeColor=none;fillColor=none;html=1;align=center;verticalAlign=middle;whiteSpace=wrap;rounded=0;fontSize=16;fontColor=#0000ff;" vertex="1" parent="xZx3a-XBZKL8ZRLLkNiZ-37">
          <mxGeometry y="4.1875" width="15.354166666666666" height="41.875" as="geometry" />
        </mxCell>
        <mxCell id="xZx3a-XBZKL8ZRLLkNiZ-40" value="" style="group" vertex="1" connectable="0" parent="0QYm9itzc9TNsAhSSJbO-27">
          <mxGeometry x="1639.75" y="760" width="50.25" height="50.25" as="geometry" />
        </mxCell>
        <mxCell id="xZx3a-XBZKL8ZRLLkNiZ-41" value="" style="shape=image;verticalLabelPosition=bottom;labelBackgroundColor=default;verticalAlign=top;aspect=fixed;imageAspect=0;image=https://upload.wikimedia.org/wikipedia/commons/d/d9/NATO_Map_Symbol_-_Land_Equipment_-_Friendly_-_Air_Defence_Gun_-_Heavy.svg;" vertex="1" parent="xZx3a-XBZKL8ZRLLkNiZ-40">
          <mxGeometry width="50.25" height="50.25" as="geometry" />
        </mxCell>
        <mxCell id="xZx3a-XBZKL8ZRLLkNiZ-42" value="&lt;font style=&quot;font-size: 20px;&quot;&gt;6&lt;/font&gt;" style="text;strokeColor=none;fillColor=none;html=1;align=center;verticalAlign=middle;whiteSpace=wrap;rounded=0;fontSize=16;fontColor=#0000ff;" vertex="1" parent="xZx3a-XBZKL8ZRLLkNiZ-40">
          <mxGeometry y="4.1875" width="15.354166666666666" height="41.875" as="geometry" />
        </mxCell>
        <mxCell id="xZx3a-XBZKL8ZRLLkNiZ-43" value="" style="group" vertex="1" connectable="0" parent="0QYm9itzc9TNsAhSSJbO-27">
          <mxGeometry x="1684.37" y="760" width="50.25" height="50.25" as="geometry" />
        </mxCell>
        <mxCell id="xZx3a-XBZKL8ZRLLkNiZ-44" value="" style="shape=image;verticalLabelPosition=bottom;labelBackgroundColor=default;verticalAlign=top;aspect=fixed;imageAspect=0;image=https://upload.wikimedia.org/wikipedia/commons/d/d9/NATO_Map_Symbol_-_Land_Equipment_-_Friendly_-_Air_Defence_Gun_-_Heavy.svg;" vertex="1" parent="xZx3a-XBZKL8ZRLLkNiZ-43">
          <mxGeometry width="50.25" height="50.25" as="geometry" />
        </mxCell>
        <mxCell id="xZx3a-XBZKL8ZRLLkNiZ-45" value="&lt;font style=&quot;font-size: 20px;&quot;&gt;6&lt;/font&gt;" style="text;strokeColor=none;fillColor=none;html=1;align=center;verticalAlign=middle;whiteSpace=wrap;rounded=0;fontSize=16;fontColor=#0000ff;" vertex="1" parent="xZx3a-XBZKL8ZRLLkNiZ-43">
          <mxGeometry y="4.1875" width="15.354166666666666" height="41.875" as="geometry" />
        </mxCell>
        <mxCell id="0QYm9itzc9TNsAhSSJbO-29" value="ПТВ" style="rounded=1;whiteSpace=wrap;html=1;fontSize=20;" parent="0QYm9itzc9TNsAhSSJbO-27" vertex="1">
          <mxGeometry x="1375.25" y="840" width="110" height="70" as="geometry" />
        </mxCell>
        <mxCell id="AxRSapy-rKkkzFosCY9n-76" value="управление" style="rounded=1;whiteSpace=wrap;html=1;fontSize=20;" parent="0QYm9itzc9TNsAhSSJbO-27" vertex="1">
          <mxGeometry x="1608.25" y="280" width="120" height="60" as="geometry" />
        </mxCell>
        <mxCell id="xZx3a-XBZKL8ZRLLkNiZ-46" value="МПР" parent="0" />
        <mxCell id="AxRSapy-rKkkzFosCY9n-86" value="МИНВ" style="rounded=1;whiteSpace=wrap;html=1;fontSize=20;" parent="xZx3a-XBZKL8ZRLLkNiZ-46" vertex="1">
          <mxGeometry x="601.25" y="410" width="190" height="50" as="geometry" />
        </mxCell>
        <mxCell id="OVKNDqmPp79XCQJYVAa0-62" value="Управление" style="rounded=1;whiteSpace=wrap;html=1;fontSize=20;" parent="xZx3a-XBZKL8ZRLLkNiZ-46" vertex="1">
          <mxGeometry x="461.25" y="405" width="120" height="60" as="geometry" />
        </mxCell>
        <mxCell id="OVKNDqmPp79XCQJYVAa0-96" value="" style="endArrow=none;html=1;rounded=0;fontSize=20;startSize=8;endSize=8;curved=1;entryX=0;entryY=0.5;entryDx=0;entryDy=0;exitX=1;exitY=0.5;exitDx=0;exitDy=0;" parent="xZx3a-XBZKL8ZRLLkNiZ-46" source="OVKNDqmPp79XCQJYVAa0-62" target="AxRSapy-rKkkzFosCY9n-86" edge="1">
          <mxGeometry width="50" height="50" relative="1" as="geometry">
            <mxPoint x="521.25" y="550" as="sourcePoint" />
            <mxPoint x="571.25" y="500" as="targetPoint" />
          </mxGeometry>
        </mxCell>
        <mxCell id="OVKNDqmPp79XCQJYVAa0-209" value="" style="group" parent="xZx3a-XBZKL8ZRLLkNiZ-46" vertex="1" connectable="0">
          <mxGeometry x="596.25" y="520" width="60" height="100" as="geometry" />
        </mxCell>
        <mxCell id="OVKNDqmPp79XCQJYVAa0-205" value="" style="ellipse;whiteSpace=wrap;html=1;aspect=fixed;fontSize=20;" parent="OVKNDqmPp79XCQJYVAa0-209" vertex="1">
          <mxGeometry x="10" y="-10" width="40" height="40" as="geometry" />
        </mxCell>
        <mxCell id="OVKNDqmPp79XCQJYVAa0-210" value="" style="group" parent="xZx3a-XBZKL8ZRLLkNiZ-46" vertex="1" connectable="0">
          <mxGeometry x="666.25" y="510" width="60" height="100" as="geometry" />
        </mxCell>
        <mxCell id="OVKNDqmPp79XCQJYVAa0-211" value="" style="ellipse;whiteSpace=wrap;html=1;aspect=fixed;fontSize=20;" parent="OVKNDqmPp79XCQJYVAa0-210" vertex="1">
          <mxGeometry x="10" width="40" height="40" as="geometry" />
        </mxCell>
        <mxCell id="OVKNDqmPp79XCQJYVAa0-213" value="" style="group" parent="xZx3a-XBZKL8ZRLLkNiZ-46" vertex="1" connectable="0">
          <mxGeometry x="736.25" y="510" width="60" height="100" as="geometry" />
        </mxCell>
        <mxCell id="OVKNDqmPp79XCQJYVAa0-214" value="" style="ellipse;whiteSpace=wrap;html=1;aspect=fixed;fontSize=20;" parent="OVKNDqmPp79XCQJYVAa0-213" vertex="1">
          <mxGeometry x="10" width="40" height="40" as="geometry" />
        </mxCell>
        <mxCell id="OVKNDqmPp79XCQJYVAa0-216" value="" style="endArrow=none;html=1;rounded=0;fontSize=12;startSize=8;endSize=8;entryX=0.5;entryY=1;entryDx=0;entryDy=0;exitX=0.5;exitY=0;exitDx=0;exitDy=0;edgeStyle=orthogonalEdgeStyle;" parent="xZx3a-XBZKL8ZRLLkNiZ-46" source="OVKNDqmPp79XCQJYVAa0-205" target="AxRSapy-rKkkzFosCY9n-86" edge="1">
          <mxGeometry width="50" height="50" relative="1" as="geometry">
            <mxPoint x="531.25" y="580" as="sourcePoint" />
            <mxPoint x="581.25" y="530" as="targetPoint" />
          </mxGeometry>
        </mxCell>
        <mxCell id="OVKNDqmPp79XCQJYVAa0-217" value="" style="endArrow=none;html=1;rounded=0;fontSize=12;startSize=8;endSize=8;entryX=0.5;entryY=1;entryDx=0;entryDy=0;exitX=0.5;exitY=0;exitDx=0;exitDy=0;edgeStyle=orthogonalEdgeStyle;" parent="xZx3a-XBZKL8ZRLLkNiZ-46" source="OVKNDqmPp79XCQJYVAa0-211" target="AxRSapy-rKkkzFosCY9n-86" edge="1">
          <mxGeometry width="50" height="50" relative="1" as="geometry">
            <mxPoint x="631.25" y="530" as="sourcePoint" />
            <mxPoint x="706.25" y="495" as="targetPoint" />
          </mxGeometry>
        </mxCell>
        <mxCell id="OVKNDqmPp79XCQJYVAa0-218" value="" style="endArrow=none;html=1;rounded=0;fontSize=12;startSize=8;endSize=8;entryX=0.5;entryY=1;entryDx=0;entryDy=0;exitX=0.5;exitY=0;exitDx=0;exitDy=0;edgeStyle=orthogonalEdgeStyle;" parent="xZx3a-XBZKL8ZRLLkNiZ-46" source="OVKNDqmPp79XCQJYVAa0-214" target="AxRSapy-rKkkzFosCY9n-86" edge="1">
          <mxGeometry width="50" height="50" relative="1" as="geometry">
            <mxPoint x="701.25" y="530" as="sourcePoint" />
            <mxPoint x="706.25" y="495" as="targetPoint" />
          </mxGeometry>
        </mxCell>
        <mxCell id="OVKNDqmPp79XCQJYVAa0-7" value="отделение оружия" style="rounded=1;whiteSpace=wrap;html=1;fontSize=20;" parent="xZx3a-XBZKL8ZRLLkNiZ-46" vertex="1">
          <mxGeometry x="421.25" y="795.6300000000001" width="120" height="60" as="geometry" />
        </mxCell>
        <mxCell id="OVKNDqmPp79XCQJYVAa0-73" value="" style="ellipse;whiteSpace=wrap;html=1;aspect=fixed;fontSize=20;" parent="xZx3a-XBZKL8ZRLLkNiZ-46" vertex="1">
          <mxGeometry x="374.3699999999999" y="915" width="40" height="40" as="geometry" />
        </mxCell>
        <mxCell id="OVKNDqmPp79XCQJYVAa0-74" value="" style="ellipse;whiteSpace=wrap;html=1;aspect=fixed;fontSize=20;" parent="xZx3a-XBZKL8ZRLLkNiZ-46" vertex="1">
          <mxGeometry x="326.8800000000001" y="915" width="40" height="40" as="geometry" />
        </mxCell>
        <mxCell id="OVKNDqmPp79XCQJYVAa0-79" value="Группа Б" style="rounded=1;whiteSpace=wrap;html=1;fontSize=20;" parent="xZx3a-XBZKL8ZRLLkNiZ-46" vertex="1">
          <mxGeometry x="911.25" y="935" width="135" height="63.5" as="geometry" />
        </mxCell>
        <mxCell id="OVKNDqmPp79XCQJYVAa0-223" value="" style="shape=image;verticalLabelPosition=bottom;labelBackgroundColor=default;verticalAlign=top;aspect=fixed;imageAspect=0;image=https://upload.wikimedia.org/wikipedia/commons/thumb/5/5a/NATO_Map_Symbol_-_Land_Equipment_-_Friendly_-_Machine_Gun_-_Medium.svg/593px-NATO_Map_Symbol_-_Land_Equipment_-_Friendly_-_Machine_Gun_-_Medium.svg.png;" parent="xZx3a-XBZKL8ZRLLkNiZ-46" vertex="1">
          <mxGeometry x="315.01" y="956.25" width="63.75" height="63.75" as="geometry" />
        </mxCell>
        <mxCell id="OVKNDqmPp79XCQJYVAa0-224" value="" style="shape=image;verticalLabelPosition=bottom;labelBackgroundColor=default;verticalAlign=top;aspect=fixed;imageAspect=0;image=https://upload.wikimedia.org/wikipedia/commons/thumb/5/5a/NATO_Map_Symbol_-_Land_Equipment_-_Friendly_-_Machine_Gun_-_Medium.svg/593px-NATO_Map_Symbol_-_Land_Equipment_-_Friendly_-_Machine_Gun_-_Medium.svg.png;" parent="xZx3a-XBZKL8ZRLLkNiZ-46" vertex="1">
          <mxGeometry x="361.74" y="956.88" width="65.25" height="65.25" as="geometry" />
        </mxCell>
        <mxCell id="OVKNDqmPp79XCQJYVAa0-228" value="" style="ellipse;whiteSpace=wrap;html=1;aspect=fixed;fontSize=20;" parent="xZx3a-XBZKL8ZRLLkNiZ-46" vertex="1">
          <mxGeometry x="437.5" y="915" width="40" height="40" as="geometry" />
        </mxCell>
        <mxCell id="OVKNDqmPp79XCQJYVAa0-231" value="" style="shape=image;verticalLabelPosition=bottom;labelBackgroundColor=default;verticalAlign=top;aspect=fixed;imageAspect=0;image=https://upload.wikimedia.org/wikipedia/commons/6/69/NATO_Map_Symbol_-_Land_Equipment_-_Friendly_-_Anti-Tank_Gun.svg;" parent="xZx3a-XBZKL8ZRLLkNiZ-46" vertex="1">
          <mxGeometry x="425" y="956.88" width="65" height="65" as="geometry" />
        </mxCell>
        <mxCell id="OVKNDqmPp79XCQJYVAa0-237" value="" style="endArrow=none;html=1;rounded=0;fontSize=12;startSize=8;endSize=8;entryX=0.5;entryY=1;entryDx=0;entryDy=0;exitX=0.5;exitY=0;exitDx=0;exitDy=0;edgeStyle=orthogonalEdgeStyle;" parent="xZx3a-XBZKL8ZRLLkNiZ-46" source="OVKNDqmPp79XCQJYVAa0-74" target="OVKNDqmPp79XCQJYVAa0-7" edge="1">
          <mxGeometry width="50" height="50" relative="1" as="geometry">
            <mxPoint x="314.25" y="-60" as="sourcePoint" />
            <mxPoint x="364.25" y="-110" as="targetPoint" />
          </mxGeometry>
        </mxCell>
        <mxCell id="OVKNDqmPp79XCQJYVAa0-238" value="" style="endArrow=none;html=1;rounded=0;fontSize=12;startSize=8;endSize=8;entryX=0.5;entryY=1;entryDx=0;entryDy=0;exitX=0.5;exitY=0;exitDx=0;exitDy=0;edgeStyle=orthogonalEdgeStyle;" parent="xZx3a-XBZKL8ZRLLkNiZ-46" source="OVKNDqmPp79XCQJYVAa0-73" target="OVKNDqmPp79XCQJYVAa0-7" edge="1">
          <mxGeometry width="50" height="50" relative="1" as="geometry">
            <mxPoint x="360.25" y="-60" as="sourcePoint" />
            <mxPoint x="494.25" y="-134" as="targetPoint" />
          </mxGeometry>
        </mxCell>
        <mxCell id="OVKNDqmPp79XCQJYVAa0-253" value="" style="shape=image;verticalLabelPosition=bottom;labelBackgroundColor=default;verticalAlign=top;aspect=fixed;imageAspect=0;image=https://upload.wikimedia.org/wikipedia/commons/thumb/f/f8/Infantry_Company_Nato.svg/600px-Infantry_Company_Nato.svg.png;imageBackground=none;" parent="xZx3a-XBZKL8ZRLLkNiZ-46" vertex="1">
          <mxGeometry x="680.0699999999999" y="1130" width="46.18" height="40.79" as="geometry" />
        </mxCell>
        <mxCell id="OVKNDqmPp79XCQJYVAa0-257" value="" style="shape=image;verticalLabelPosition=bottom;labelBackgroundColor=default;verticalAlign=top;aspect=fixed;imageAspect=0;image=https://upload.wikimedia.org/wikipedia/commons/thumb/f/f8/Infantry_Company_Nato.svg/600px-Infantry_Company_Nato.svg.png;imageBackground=none;" parent="xZx3a-XBZKL8ZRLLkNiZ-46" vertex="1">
          <mxGeometry x="796.25" y="1130" width="46.18" height="40.79" as="geometry" />
        </mxCell>
        <mxCell id="OVKNDqmPp79XCQJYVAa0-258" value="" style="shape=image;verticalLabelPosition=bottom;labelBackgroundColor=default;verticalAlign=top;aspect=fixed;imageAspect=0;image=https://upload.wikimedia.org/wikipedia/commons/thumb/f/f8/Infantry_Company_Nato.svg/600px-Infantry_Company_Nato.svg.png;imageBackground=none;" parent="xZx3a-XBZKL8ZRLLkNiZ-46" vertex="1">
          <mxGeometry x="738.1599999999999" y="1130" width="46.18" height="40.79" as="geometry" />
        </mxCell>
        <mxCell id="OVKNDqmPp79XCQJYVAa0-259" value="" style="shape=image;verticalLabelPosition=bottom;labelBackgroundColor=default;verticalAlign=top;aspect=fixed;imageAspect=0;image=https://upload.wikimedia.org/wikipedia/commons/thumb/f/f8/Infantry_Company_Nato.svg/600px-Infantry_Company_Nato.svg.png;imageBackground=none;" parent="xZx3a-XBZKL8ZRLLkNiZ-46" vertex="1">
          <mxGeometry x="984.71" y="1130" width="46.18" height="40.79" as="geometry" />
        </mxCell>
        <mxCell id="OVKNDqmPp79XCQJYVAa0-260" value="" style="shape=image;verticalLabelPosition=bottom;labelBackgroundColor=default;verticalAlign=top;aspect=fixed;imageAspect=0;image=https://upload.wikimedia.org/wikipedia/commons/thumb/f/f8/Infantry_Company_Nato.svg/600px-Infantry_Company_Nato.svg.png;imageBackground=none;" parent="xZx3a-XBZKL8ZRLLkNiZ-46" vertex="1">
          <mxGeometry x="926.6199999999999" y="1130" width="46.18" height="40.79" as="geometry" />
        </mxCell>
        <mxCell id="xZx3a-XBZKL8ZRLLkNiZ-1" value="командир" style="rounded=1;whiteSpace=wrap;html=1;fontSize=20;" vertex="1" parent="xZx3a-XBZKL8ZRLLkNiZ-46">
          <mxGeometry x="396.25" y="574" width="145" height="45" as="geometry" />
        </mxCell>
        <mxCell id="xZx3a-XBZKL8ZRLLkNiZ-2" value="помощник&lt;br&gt;командира" style="rounded=1;whiteSpace=wrap;html=1;fontSize=20;" vertex="1" parent="xZx3a-XBZKL8ZRLLkNiZ-46">
          <mxGeometry x="396.25" y="629" width="145" height="60" as="geometry" />
        </mxCell>
        <mxCell id="xZx3a-XBZKL8ZRLLkNiZ-3" value="радист" style="rounded=1;whiteSpace=wrap;html=1;fontSize=20;" vertex="1" parent="xZx3a-XBZKL8ZRLLkNiZ-46">
          <mxGeometry x="396.25" y="700" width="145" height="45" as="geometry" />
        </mxCell>
        <mxCell id="AxRSapy-rKkkzFosCY9n-87" value="Мотопехотный взвод" style="rounded=1;whiteSpace=wrap;html=1;fontSize=20;" parent="xZx3a-XBZKL8ZRLLkNiZ-46" vertex="1">
          <mxGeometry x="818.5" y="619" width="155" height="80" as="geometry" />
        </mxCell>
        <mxCell id="AxRSapy-rKkkzFosCY9n-88" value="Мотопехотный взвод" style="rounded=1;whiteSpace=wrap;html=1;fontSize=20;" parent="xZx3a-XBZKL8ZRLLkNiZ-46" vertex="1">
          <mxGeometry x="828.5" y="629" width="165" height="80" as="geometry" />
        </mxCell>
        <mxCell id="AxRSapy-rKkkzFosCY9n-89" value="МПВ" style="rounded=1;whiteSpace=wrap;html=1;fontSize=20;" parent="xZx3a-XBZKL8ZRLLkNiZ-46" vertex="1">
          <mxGeometry x="838.5" y="639" width="175" height="80" as="geometry" />
        </mxCell>
        <mxCell id="OVKNDqmPp79XCQJYVAa0-1" value="управление" style="rounded=1;whiteSpace=wrap;html=1;fontSize=20;" parent="xZx3a-XBZKL8ZRLLkNiZ-46" vertex="1">
          <mxGeometry x="636" y="629" width="145" height="60" as="geometry" />
        </mxCell>
        <mxCell id="OVKNDqmPp79XCQJYVAa0-75" value="Отделение" style="rounded=1;whiteSpace=wrap;html=1;fontSize=20;" parent="xZx3a-XBZKL8ZRLLkNiZ-46" vertex="1">
          <mxGeometry x="866.25" y="795.6300000000001" width="120" height="60" as="geometry" />
        </mxCell>
        <mxCell id="OVKNDqmPp79XCQJYVAa0-76" value="командир" style="rounded=1;whiteSpace=wrap;html=1;fontSize=20;" parent="xZx3a-XBZKL8ZRLLkNiZ-46" vertex="1">
          <mxGeometry x="701.25" y="834.6300000000001" width="125" height="45.37" as="geometry" />
        </mxCell>
        <mxCell id="OVKNDqmPp79XCQJYVAa0-78" value="Группа А" style="rounded=1;whiteSpace=wrap;html=1;fontSize=20;" parent="xZx3a-XBZKL8ZRLLkNiZ-46" vertex="1">
          <mxGeometry x="701.25" y="938.5" width="125" height="60" as="geometry" />
        </mxCell>
        <mxCell id="OVKNDqmPp79XCQJYVAa0-208" value="" style="shape=image;verticalLabelPosition=bottom;labelBackgroundColor=default;verticalAlign=top;aspect=fixed;imageAspect=0;image=https://upload.wikimedia.org/wikipedia/commons/c/c4/NATO_Map_Symbol_-_Land_Equipment_-_Friendly_-_Mortar_-_Medium.svg;" parent="xZx3a-XBZKL8ZRLLkNiZ-46" vertex="1">
          <mxGeometry x="596.25" y="550" width="60" height="60" as="geometry" />
        </mxCell>
        <mxCell id="OVKNDqmPp79XCQJYVAa0-212" value="" style="shape=image;verticalLabelPosition=bottom;labelBackgroundColor=default;verticalAlign=top;aspect=fixed;imageAspect=0;image=https://upload.wikimedia.org/wikipedia/commons/c/c4/NATO_Map_Symbol_-_Land_Equipment_-_Friendly_-_Mortar_-_Medium.svg;" parent="xZx3a-XBZKL8ZRLLkNiZ-46" vertex="1">
          <mxGeometry x="666.25" y="550" width="60" height="60" as="geometry" />
        </mxCell>
        <mxCell id="OVKNDqmPp79XCQJYVAa0-215" value="" style="shape=image;verticalLabelPosition=bottom;labelBackgroundColor=default;verticalAlign=top;aspect=fixed;imageAspect=0;image=https://upload.wikimedia.org/wikipedia/commons/c/c4/NATO_Map_Symbol_-_Land_Equipment_-_Friendly_-_Mortar_-_Medium.svg;" parent="xZx3a-XBZKL8ZRLLkNiZ-46" vertex="1">
          <mxGeometry x="736.25" y="550" width="60" height="60" as="geometry" />
        </mxCell>
        <mxCell id="OVKNDqmPp79XCQJYVAa0-219" value="" style="endArrow=none;html=1;rounded=0;fontSize=12;startSize=8;endSize=8;curved=1;entryX=0;entryY=0.5;entryDx=0;entryDy=0;exitX=1;exitY=0.5;exitDx=0;exitDy=0;" parent="xZx3a-XBZKL8ZRLLkNiZ-46" source="OVKNDqmPp79XCQJYVAa0-1" target="AxRSapy-rKkkzFosCY9n-87" edge="1">
          <mxGeometry width="50" height="50" relative="1" as="geometry">
            <mxPoint x="741.25" y="775" as="sourcePoint" />
            <mxPoint x="791.25" y="725" as="targetPoint" />
          </mxGeometry>
        </mxCell>
        <mxCell id="OVKNDqmPp79XCQJYVAa0-222" value="" style="endArrow=none;html=1;rounded=0;fontSize=12;startSize=8;endSize=8;entryX=0.5;entryY=1;entryDx=0;entryDy=0;exitX=0.5;exitY=0;exitDx=0;exitDy=0;edgeStyle=orthogonalEdgeStyle;" parent="xZx3a-XBZKL8ZRLLkNiZ-46" source="OVKNDqmPp79XCQJYVAa0-7" target="AxRSapy-rKkkzFosCY9n-89" edge="1">
          <mxGeometry width="50" height="50" relative="1" as="geometry">
            <mxPoint x="821.25" y="835" as="sourcePoint" />
            <mxPoint x="871.25" y="785" as="targetPoint" />
          </mxGeometry>
        </mxCell>
        <mxCell id="OVKNDqmPp79XCQJYVAa0-226" value="" style="endArrow=none;html=1;rounded=0;fontSize=12;startSize=8;endSize=8;curved=1;entryX=0.5;entryY=1;entryDx=0;entryDy=0;exitX=0.5;exitY=0;exitDx=0;exitDy=0;" parent="xZx3a-XBZKL8ZRLLkNiZ-46" source="OVKNDqmPp79XCQJYVAa0-75" target="AxRSapy-rKkkzFosCY9n-89" edge="1">
          <mxGeometry width="50" height="50" relative="1" as="geometry">
            <mxPoint x="771.25" y="915" as="sourcePoint" />
            <mxPoint x="821.25" y="865" as="targetPoint" />
          </mxGeometry>
        </mxCell>
        <mxCell id="OVKNDqmPp79XCQJYVAa0-229" value="" style="ellipse;whiteSpace=wrap;html=1;aspect=fixed;fontSize=20;" parent="xZx3a-XBZKL8ZRLLkNiZ-46" vertex="1">
          <mxGeometry x="485" y="915" width="40" height="40" as="geometry" />
        </mxCell>
        <mxCell id="OVKNDqmPp79XCQJYVAa0-232" value="" style="shape=image;verticalLabelPosition=bottom;labelBackgroundColor=default;verticalAlign=top;aspect=fixed;imageAspect=0;image=https://upload.wikimedia.org/wikipedia/commons/6/69/NATO_Map_Symbol_-_Land_Equipment_-_Friendly_-_Anti-Tank_Gun.svg;" parent="xZx3a-XBZKL8ZRLLkNiZ-46" vertex="1">
          <mxGeometry x="472.25" y="956.25" width="65.5" height="65.5" as="geometry" />
        </mxCell>
        <mxCell id="OVKNDqmPp79XCQJYVAa0-234" value="доносчик" style="rounded=1;whiteSpace=wrap;html=1;fontSize=16;" parent="xZx3a-XBZKL8ZRLLkNiZ-46" vertex="1">
          <mxGeometry x="541.25" y="915" width="120" height="43" as="geometry" />
        </mxCell>
        <mxCell id="OVKNDqmPp79XCQJYVAa0-236" value="доносчик" style="rounded=1;whiteSpace=wrap;html=1;fontSize=16;" parent="xZx3a-XBZKL8ZRLLkNiZ-46" vertex="1">
          <mxGeometry x="551.25" y="922" width="120" height="43" as="geometry" />
        </mxCell>
        <mxCell id="OVKNDqmPp79XCQJYVAa0-239" value="" style="endArrow=none;html=1;rounded=0;fontSize=12;startSize=8;endSize=8;entryX=0.5;entryY=1;entryDx=0;entryDy=0;exitX=0.5;exitY=0;exitDx=0;exitDy=0;edgeStyle=orthogonalEdgeStyle;" parent="xZx3a-XBZKL8ZRLLkNiZ-46" source="OVKNDqmPp79XCQJYVAa0-228" target="OVKNDqmPp79XCQJYVAa0-7" edge="1">
          <mxGeometry width="50" height="50" relative="1" as="geometry">
            <mxPoint x="404.25" y="940" as="sourcePoint" />
            <mxPoint x="491.25" y="866" as="targetPoint" />
          </mxGeometry>
        </mxCell>
        <mxCell id="OVKNDqmPp79XCQJYVAa0-240" value="" style="endArrow=none;html=1;rounded=0;fontSize=12;startSize=8;endSize=8;exitX=0.5;exitY=0;exitDx=0;exitDy=0;entryX=0.5;entryY=1;entryDx=0;entryDy=0;edgeStyle=orthogonalEdgeStyle;" parent="xZx3a-XBZKL8ZRLLkNiZ-46" source="OVKNDqmPp79XCQJYVAa0-229" target="OVKNDqmPp79XCQJYVAa0-7" edge="1">
          <mxGeometry width="50" height="50" relative="1" as="geometry">
            <mxPoint x="467.25" y="940" as="sourcePoint" />
            <mxPoint x="531.25" y="885" as="targetPoint" />
          </mxGeometry>
        </mxCell>
        <mxCell id="OVKNDqmPp79XCQJYVAa0-241" value="" style="endArrow=none;html=1;rounded=0;fontSize=12;startSize=8;endSize=8;exitX=0.5;exitY=0;exitDx=0;exitDy=0;entryX=0.5;entryY=1;entryDx=0;entryDy=0;edgeStyle=orthogonalEdgeStyle;" parent="xZx3a-XBZKL8ZRLLkNiZ-46" source="OVKNDqmPp79XCQJYVAa0-234" target="OVKNDqmPp79XCQJYVAa0-7" edge="1">
          <mxGeometry width="50" height="50" relative="1" as="geometry">
            <mxPoint x="515.25" y="940" as="sourcePoint" />
            <mxPoint x="491.25" y="866" as="targetPoint" />
          </mxGeometry>
        </mxCell>
        <mxCell id="OVKNDqmPp79XCQJYVAa0-242" value="" style="endArrow=none;html=1;rounded=0;fontSize=12;startSize=8;endSize=8;entryX=0;entryY=0.5;entryDx=0;entryDy=0;exitX=1;exitY=0.5;exitDx=0;exitDy=0;edgeStyle=orthogonalEdgeStyle;" parent="xZx3a-XBZKL8ZRLLkNiZ-46" source="OVKNDqmPp79XCQJYVAa0-76" target="OVKNDqmPp79XCQJYVAa0-75" edge="1">
          <mxGeometry width="50" height="50" relative="1" as="geometry">
            <mxPoint x="771.25" y="955" as="sourcePoint" />
            <mxPoint x="821.25" y="905" as="targetPoint" />
          </mxGeometry>
        </mxCell>
        <mxCell id="OVKNDqmPp79XCQJYVAa0-243" value="водитель БТР" style="rounded=1;whiteSpace=wrap;html=1;fontSize=20;" parent="xZx3a-XBZKL8ZRLLkNiZ-46" vertex="1">
          <mxGeometry x="666.25" y="774.6300000000001" width="160" height="45.37" as="geometry" />
        </mxCell>
        <mxCell id="OVKNDqmPp79XCQJYVAa0-244" value="" style="endArrow=none;html=1;rounded=0;fontSize=12;startSize=8;endSize=8;exitX=1;exitY=0.5;exitDx=0;exitDy=0;entryX=0;entryY=0.5;entryDx=0;entryDy=0;edgeStyle=orthogonalEdgeStyle;" parent="xZx3a-XBZKL8ZRLLkNiZ-46" source="OVKNDqmPp79XCQJYVAa0-243" target="OVKNDqmPp79XCQJYVAa0-75" edge="1">
          <mxGeometry width="50" height="50" relative="1" as="geometry">
            <mxPoint x="1001.25" y="845" as="sourcePoint" />
            <mxPoint x="1051.25" y="795" as="targetPoint" />
          </mxGeometry>
        </mxCell>
        <mxCell id="OVKNDqmPp79XCQJYVAa0-245" value="" style="endArrow=none;html=1;rounded=0;fontSize=12;startSize=8;endSize=8;entryX=0.5;entryY=1;entryDx=0;entryDy=0;exitX=0.5;exitY=0;exitDx=0;exitDy=0;edgeStyle=orthogonalEdgeStyle;" parent="xZx3a-XBZKL8ZRLLkNiZ-46" source="OVKNDqmPp79XCQJYVAa0-78" target="OVKNDqmPp79XCQJYVAa0-75" edge="1">
          <mxGeometry width="50" height="50" relative="1" as="geometry">
            <mxPoint x="761.25" y="1055" as="sourcePoint" />
            <mxPoint x="811.25" y="1005" as="targetPoint" />
            <Array as="points">
              <mxPoint x="763.25" y="905" />
              <mxPoint x="926.25" y="905" />
            </Array>
          </mxGeometry>
        </mxCell>
        <mxCell id="OVKNDqmPp79XCQJYVAa0-246" value="" style="endArrow=none;html=1;rounded=0;fontSize=12;startSize=8;endSize=8;entryX=0.5;entryY=1;entryDx=0;entryDy=0;exitX=0.5;exitY=0;exitDx=0;exitDy=0;edgeStyle=orthogonalEdgeStyle;" parent="xZx3a-XBZKL8ZRLLkNiZ-46" source="OVKNDqmPp79XCQJYVAa0-79" target="OVKNDqmPp79XCQJYVAa0-75" edge="1">
          <mxGeometry width="50" height="50" relative="1" as="geometry">
            <mxPoint x="774.25" y="917" as="sourcePoint" />
            <mxPoint x="936.25" y="866" as="targetPoint" />
            <Array as="points">
              <mxPoint x="979.25" y="905" />
              <mxPoint x="926.25" y="905" />
            </Array>
          </mxGeometry>
        </mxCell>
        <mxCell id="OVKNDqmPp79XCQJYVAa0-250" value="" style="shape=image;verticalLabelPosition=bottom;labelBackgroundColor=default;verticalAlign=top;aspect=fixed;imageAspect=0;image=https://upload.wikimedia.org/wikipedia/commons/thumb/b/bd/Military_Symbol_-_Friendly_Unit_%28Solid_Light_1.5x1_Frame%29-_Artillery_-_Rocket_Launchers_%28MulitRocket%29_-_Wheeled_Agile_%28NATO_APP-6%29.svg/600px-Military_Symbol_-_Friendly_Unit_%28Solid_Light_1.5x1_Frame%29-_Artillery_-_Rocket_Launchers_%28MulitRocket%29_-_Wheeled_Agile_%28NATO_APP-6%29.svg.png;" parent="xZx3a-XBZKL8ZRLLkNiZ-46" vertex="1">
          <mxGeometry x="731.25" y="1080" width="60" height="40" as="geometry" />
        </mxCell>
        <mxCell id="OVKNDqmPp79XCQJYVAa0-251" value="" style="shape=image;verticalLabelPosition=bottom;labelBackgroundColor=default;verticalAlign=top;aspect=fixed;imageAspect=0;image=https://upload.wikimedia.org/wikipedia/commons/thumb/b/bd/Military_Symbol_-_Friendly_Unit_%28Solid_Light_1.5x1_Frame%29-_Artillery_-_Rocket_Launchers_%28MulitRocket%29_-_Wheeled_Agile_%28NATO_APP-6%29.svg/600px-Military_Symbol_-_Friendly_Unit_%28Solid_Light_1.5x1_Frame%29-_Artillery_-_Rocket_Launchers_%28MulitRocket%29_-_Wheeled_Agile_%28NATO_APP-6%29.svg.png;" parent="xZx3a-XBZKL8ZRLLkNiZ-46" vertex="1">
          <mxGeometry x="948.75" y="1080" width="60" height="40" as="geometry" />
        </mxCell>
        <mxCell id="OVKNDqmPp79XCQJYVAa0-261" value="" style="shape=image;verticalLabelPosition=bottom;labelBackgroundColor=default;verticalAlign=top;aspect=fixed;imageAspect=0;image=https://upload.wikimedia.org/wikipedia/commons/thumb/5/5c/Military_Symbol_-_Friendly_Command_%28Solid_Light_1.5x1_Frame%29-_Unspecified_or_Composite_All-Arms_%28NATO_APP-6%29.svg/2319px-Military_Symbol_-_Friendly_Command_%28Solid_Light_1.5x1_Frame%29-_Unspecified_or_Composite_All-Arms_%28NATO_APP-6%29.svg.png;" parent="xZx3a-XBZKL8ZRLLkNiZ-46" vertex="1">
          <mxGeometry x="731.25" y="1010" width="58.75" height="51.9" as="geometry" />
        </mxCell>
        <mxCell id="OVKNDqmPp79XCQJYVAa0-262" value="" style="shape=image;verticalLabelPosition=bottom;labelBackgroundColor=default;verticalAlign=top;aspect=fixed;imageAspect=0;image=https://upload.wikimedia.org/wikipedia/commons/thumb/5/5c/Military_Symbol_-_Friendly_Command_%28Solid_Light_1.5x1_Frame%29-_Unspecified_or_Composite_All-Arms_%28NATO_APP-6%29.svg/2319px-Military_Symbol_-_Friendly_Command_%28Solid_Light_1.5x1_Frame%29-_Unspecified_or_Composite_All-Arms_%28NATO_APP-6%29.svg.png;" parent="xZx3a-XBZKL8ZRLLkNiZ-46" vertex="1">
          <mxGeometry x="949.3800000000001" y="1011.8699999999999" width="58.75" height="51.9" as="geometry" />
        </mxCell>
        <mxCell id="xZx3a-XBZKL8ZRLLkNiZ-7" value="" style="endArrow=none;html=1;rounded=0;fontSize=12;startSize=8;endSize=8;exitX=1;exitY=0.5;exitDx=0;exitDy=0;entryX=0;entryY=0.5;entryDx=0;entryDy=0;edgeStyle=orthogonalEdgeStyle;" edge="1" parent="xZx3a-XBZKL8ZRLLkNiZ-46" source="xZx3a-XBZKL8ZRLLkNiZ-3" target="OVKNDqmPp79XCQJYVAa0-1">
          <mxGeometry width="50" height="50" relative="1" as="geometry">
            <mxPoint x="560" y="730" as="sourcePoint" />
            <mxPoint x="610" y="680" as="targetPoint" />
          </mxGeometry>
        </mxCell>
        <mxCell id="xZx3a-XBZKL8ZRLLkNiZ-8" value="" style="endArrow=none;html=1;rounded=0;fontSize=12;startSize=8;endSize=8;exitX=1;exitY=0.5;exitDx=0;exitDy=0;entryX=0;entryY=0.5;entryDx=0;entryDy=0;edgeStyle=orthogonalEdgeStyle;" edge="1" parent="xZx3a-XBZKL8ZRLLkNiZ-46" source="xZx3a-XBZKL8ZRLLkNiZ-2" target="OVKNDqmPp79XCQJYVAa0-1">
          <mxGeometry width="50" height="50" relative="1" as="geometry">
            <mxPoint x="551" y="733" as="sourcePoint" />
            <mxPoint x="646" y="670" as="targetPoint" />
          </mxGeometry>
        </mxCell>
        <mxCell id="xZx3a-XBZKL8ZRLLkNiZ-9" value="" style="endArrow=none;html=1;rounded=0;fontSize=12;startSize=8;endSize=8;exitX=1;exitY=0.5;exitDx=0;exitDy=0;entryX=0;entryY=0.5;entryDx=0;entryDy=0;edgeStyle=orthogonalEdgeStyle;" edge="1" parent="xZx3a-XBZKL8ZRLLkNiZ-46" source="xZx3a-XBZKL8ZRLLkNiZ-1" target="OVKNDqmPp79XCQJYVAa0-1">
          <mxGeometry width="50" height="50" relative="1" as="geometry">
            <mxPoint x="561" y="743" as="sourcePoint" />
            <mxPoint x="610" y="720" as="targetPoint" />
          </mxGeometry>
        </mxCell>
        <mxCell id="AxRSapy-rKkkzFosCY9n-85" value="Управление роты" style="rounded=1;whiteSpace=wrap;html=1;fontSize=20;" parent="xZx3a-XBZKL8ZRLLkNiZ-46" vertex="1">
          <mxGeometry x="581.25" y="280" width="120" height="60" as="geometry" />
        </mxCell>
      </root>
    </mxGraphModel>
  </diagram>
</mxfile>
